# xmcd CD database file
#
# Track frame offsets:
#	150
#	21994
#	38498
#	63718
#	78690
#	100262
#	115867
#	144404
#	163771
#	181833
#	199770
#	223416
#	247078
#
# Disc length: 3603 seconds
#
# Revision: 0
# Processed by: cddbd v1.5.2PL0 Copyright (c) Steve Scherf et al.
# Submitted via: CDex 2.09
#
DISCID=bf0e110d
DTITLE=Tierney Sutton Band - On the Other Side
DYEAR=2007
DGENRE=Jazz
TTITLE0=Get Happy (version 1)
TTITLE1=Happy Days Are Here Again (version 1)
TTITLE2=You Are My Sunshine
TTITLE3=Glad To Be Unhappy
TTITLE4=Sometimes I'm Happy
TTITLE5=Happy Talk
TTITLE6=Haunted Heart
TTITLE7=I Want To Be Happy
TTITLE8=Make Someone Happy
TTITLE9=Great Day!
TTITLE10=Happy Days Are Here Again (version 2)
TTITLE11=Get Happy (version 2)
TTITLE12=Smile
EXTD=YEAR: 2007
EXTT0=
EXTT1=
EXTT2=
EXTT3=
EXTT4=
EXTT5=
EXTT6=
EXTT7=
EXTT8=
EXTT9=
EXTT10=
EXTT11=
EXTT12=
PLAYORDER=
